<svg width="38" height="38" viewBox="0 0 38 38" fill="none" xmlns="http://www.w3.org/2000/svg">
<path d="M7.91667 33.25C7.04583 33.25 6.30061 32.9402 5.681 32.3206C5.06139 31.701 4.75106 30.9552 4.75 30.0833V10.3313C4.75 9.96181 4.80964 9.60556 4.92892 9.26251C5.04819 8.91945 5.22606 8.60279 5.4625 8.31251L7.44167 5.89792C7.73194 5.52848 8.09453 5.24454 8.52942 5.04609C8.96431 4.84765 9.41978 4.74895 9.89583 4.75001H28.1042C28.5792 4.75001 29.0346 4.84923 29.4706 5.04767C29.9065 5.24612 30.2691 5.52954 30.5583 5.89792L32.5375 8.31251C32.775 8.60279 32.9534 8.91945 33.0727 9.26251C33.1919 9.60556 33.2511 9.96181 33.25 10.3313V30.0833C33.25 30.9542 32.9402 31.6999 32.3206 32.3206C31.701 32.9413 30.9552 33.2511 30.0833 33.25H7.91667ZM8.55 9.50001H29.45L28.1042 7.91668H9.89583L8.55 9.50001ZM25.3333 12.6667H12.6667V22.7604C12.6667 23.3674 12.9174 23.8228 13.4188 24.1268C13.9201 24.4308 14.4347 24.4504 14.9625 24.1854L19 22.1667L23.0375 24.1854C23.5653 24.4493 24.0799 24.4293 24.5812 24.1253C25.0826 23.8213 25.3333 23.3663 25.3333 22.7604V12.6667Z" fill="black"/>
</svg>
