<svg width="32" height="29" viewBox="0 0 32 29" fill="none" xmlns="http://www.w3.org/2000/svg">
<path d="M28.8 3.22222H23.728L20.8 0H11.2L8.272 3.22222H3.2C2.35131 3.22222 1.53737 3.56171 0.937258 4.16599C0.337142 4.77027 0 5.58986 0 6.44444V25.7778C0 26.6324 0.337142 27.452 0.937258 28.0562C1.53737 28.6605 2.35131 29 3.2 29H28.8C29.6487 29 30.4626 28.6605 31.0627 28.0562C31.6629 27.452 32 26.6324 32 25.7778V6.44444C32 5.58986 31.6629 4.77027 31.0627 4.16599C30.4626 3.56171 29.6487 3.22222 28.8 3.22222ZM28.8 25.7778H3.2V6.44444H9.68L12.608 3.22222H19.392L22.32 6.44444H28.8V25.7778ZM16 8.05556C13.8783 8.05556 11.8434 8.90426 10.3431 10.415C8.84285 11.9257 8 13.9746 8 16.1111C8 18.2476 8.84285 20.2965 10.3431 21.8072C11.8434 23.318 13.8783 24.1667 16 24.1667C18.1217 24.1667 20.1566 23.318 21.6569 21.8072C23.1571 20.2965 24 18.2476 24 16.1111C24 13.9746 23.1571 11.9257 21.6569 10.415C20.1566 8.90426 18.1217 8.05556 16 8.05556ZM16 20.9444C14.727 20.9444 13.5061 20.4352 12.6059 19.5288C11.7057 18.6224 11.2 17.393 11.2 16.1111C11.2 14.8292 11.7057 13.5999 12.6059 12.6934C13.5061 11.787 14.727 11.2778 16 11.2778C17.273 11.2778 18.4939 11.787 19.3941 12.6934C20.2943 13.5999 20.8 14.8292 20.8 16.1111C20.8 17.393 20.2943 18.6224 19.3941 19.5288C18.4939 20.4352 17.273 20.9444 16 20.9444Z" fill="white"/>
</svg>
