<svg width="37" height="28" viewBox="0 0 37 28" fill="none" xmlns="http://www.w3.org/2000/svg">
<g clip-path="url(#clip0_6_652)">
<path d="M8.40912 27.8621V13.5125L3.97562 9.44118L0 7.18188V25.3298C0 26.731 1.13096 27.8621 2.52279 27.8621H8.40912Z" fill="#4285F4"/>
<path d="M28.5909 27.8622H34.4772C35.8732 27.8622 37 26.7269 37 25.3299V7.18213L32.497 9.76988L28.5909 13.5126V27.8622Z" fill="#34A853"/>
<path d="M8.40912 13.5125L7.80585 7.90571L8.40912 2.53943L18.5 10.1363L28.5909 2.53943L29.2657 7.61599L28.5909 13.5125L18.5 21.1094L8.40912 13.5125Z" fill="#EA4335"/>
<path d="M28.5909 2.5394V13.5125L37 7.18188V3.80549C37 0.673986 33.4388 -1.1112 30.9456 0.766836L28.5909 2.5394Z" fill="#FBBC04"/>
<path d="M0 7.18195L3.86751 10.0937L8.40912 13.5126V2.53946L6.05441 0.766903C3.55691 -1.11127 0 0.674053 0 3.80541V7.18195Z" fill="#C5221F"/>
</g>
<defs>
<clipPath id="clip0_6_652">
<rect width="37" height="28" fill="white"/>
</clipPath>
</defs>
</svg>
