<svg width="38" height="38" viewBox="0 0 38 38" fill="none" xmlns="http://www.w3.org/2000/svg">
<path d="M6.33337 30.0833V15.8333C6.33337 15.3319 6.44579 14.8569 6.67062 14.4083C6.89546 13.9597 7.20526 13.5902 7.60004 13.3L17.1 6.17496C17.6542 5.75274 18.2875 5.54163 19 5.54163C19.7125 5.54163 20.3459 5.75274 20.9 6.17496L30.4 13.3C30.7959 13.5902 31.1062 13.9597 31.331 14.4083C31.5559 14.8569 31.6678 15.3319 31.6667 15.8333V30.0833C31.6667 30.9541 31.3564 31.6999 30.7357 32.3205C30.115 32.9412 29.3698 33.251 28.5 33.25H23.75C23.3014 33.25 22.9257 33.098 22.6227 32.794C22.3198 32.49 22.1678 32.1142 22.1667 31.6666V23.75C22.1667 23.3013 22.0147 22.9256 21.7107 22.6226C21.4067 22.3197 21.0309 22.1677 20.5834 22.1666H17.4167C16.9681 22.1666 16.5923 22.3186 16.2894 22.6226C15.9864 22.9266 15.8344 23.3024 15.8334 23.75V31.6666C15.8334 32.1152 15.6814 32.4915 15.3774 32.7955C15.0734 33.0995 14.6976 33.251 14.25 33.25H9.50004C8.62921 33.25 7.88398 32.9402 7.26437 32.3205C6.64476 31.7009 6.33443 30.9552 6.33337 30.0833Z" fill="black"/>
</svg>
