<svg width="26" height="26" viewBox="0 0 26 26" fill="none" xmlns="http://www.w3.org/2000/svg">
<path d="M13 4.33334C14.1493 4.33334 15.2515 4.78989 16.0641 5.60255C16.8768 6.41521 17.3333 7.51741 17.3333 8.66668C17.3333 9.81595 16.8768 10.9181 16.0641 11.7308C15.2515 12.5435 14.1493 13 13 13C11.8507 13 10.7485 12.5435 9.93588 11.7308C9.12322 10.9181 8.66668 9.81595 8.66668 8.66668C8.66668 7.51741 9.12322 6.41521 9.93588 5.60255C10.7485 4.78989 11.8507 4.33334 13 4.33334ZM13 15.1667C17.7883 15.1667 21.6667 17.1058 21.6667 19.5V21.6667H4.33334V19.5C4.33334 17.1058 8.21168 15.1667 13 15.1667Z" fill="black"/>
</svg>
