<svg width="42" height="42" viewBox="0 0 42 42" fill="none" xmlns="http://www.w3.org/2000/svg">
<path fill-rule="evenodd" clip-rule="evenodd" d="M9.39754 9.39747C8.31322 10.4674 7.45125 11.7412 6.86125 13.1455C6.27126 14.5499 5.96488 16.0571 5.95978 17.5804C5.95468 19.1037 6.25094 20.6129 6.83152 22.0212C7.4121 23.4295 8.26551 24.7091 9.34263 25.7862C10.4198 26.8633 11.6993 27.7167 13.1076 28.2973C14.5159 28.8779 16.0251 29.1741 17.5484 29.169C19.0717 29.1639 20.5789 28.8576 21.9833 28.2676C23.3877 27.6776 24.6615 26.8156 25.7313 25.7313C27.8734 23.5603 29.0699 20.6302 29.0597 17.5804C29.0494 14.5306 27.8334 11.6086 25.6768 9.45201C23.5202 7.29544 20.5982 6.07937 17.5484 6.06916C14.4986 6.05894 11.5685 7.2554 9.39754 9.39747ZM22.7619 22.7619C22.0794 23.4444 21.2691 23.9858 20.3773 24.3552C19.4855 24.7246 18.5297 24.9147 17.5644 24.9147C16.5992 24.9147 15.6434 24.7246 14.7516 24.3552C13.8598 23.9858 13.0495 23.4444 12.3669 22.7619C11.6844 22.0793 11.143 21.269 10.7736 20.3772C10.4042 19.4855 10.2141 18.5296 10.2141 17.5644C10.2141 16.5991 10.4042 15.6433 10.7736 14.7515C11.143 13.8597 11.6844 13.0494 12.3669 12.3669C13.7454 10.9884 15.615 10.214 17.5644 10.214C19.5139 10.214 21.3835 10.9884 22.7619 12.3669C24.1404 13.7453 24.9148 15.6149 24.9148 17.5644C24.9148 19.5138 24.1404 21.3834 22.7619 22.7619Z" fill="black"/>
<path d="M23.5032 27.9594C23.2106 27.6668 22.9785 27.3195 22.8202 26.9372C22.6618 26.5549 22.5803 26.1451 22.5803 25.7313C22.5803 25.3175 22.6618 24.9078 22.8202 24.5255C22.9785 24.1432 23.2106 23.7958 23.5032 23.5032C23.7958 23.2106 24.1432 22.9785 24.5255 22.8202C24.9078 22.6618 25.3175 22.5803 25.7313 22.5803C26.1451 22.5803 26.5549 22.6618 26.9372 22.8202C27.3195 22.9785 27.6668 23.2106 27.9594 23.5032L35.3829 30.9288C35.6838 31.2194 35.9238 31.567 36.0889 31.9513C36.2539 32.3356 36.3408 32.749 36.3445 33.1672C36.3481 33.5855 36.2684 34.0003 36.11 34.3874C35.9516 34.7745 35.7177 35.1262 35.422 35.422C35.1262 35.7177 34.7745 35.9516 34.3874 36.11C34.0003 36.2684 33.5855 36.3481 33.1672 36.3445C32.749 36.3408 32.3356 36.2539 31.9513 36.0889C31.567 35.9238 31.2194 35.6838 30.9288 35.3829L23.5032 27.9594Z" fill="black"/>
</svg>
